<svg width="32" height="32" viewBox="0 0 32 32" fill="none" xmlns="http://www.w3.org/2000/svg">
<g id="&#240;&#159;&#166;&#134; icon &#34;facebook&#34;" opacity="0.4">
<path id="Vector" d="M32 22.703C32 28.527 28.528 31.999 22.704 31.999H20.8C19.92 31.999 19.2 31.279 19.2 30.399V21.167C19.2 20.735 19.552 20.367 19.984 20.367L22.8 20.319C23.024 20.303 23.216 20.143 23.264 19.919L23.824 16.863C23.872 16.575 23.648 16.303 23.344 16.303L19.936 16.351C19.488 16.351 19.136 15.999 19.12 15.567L19.056 11.647C19.056 11.391 19.264 11.167 19.536 11.167L23.376 11.103C23.648 11.103 23.856 10.895 23.856 10.623L23.792 6.78295C23.792 6.51095 23.584 6.30296 23.312 6.30296L18.992 6.36698C16.336 6.41498 14.224 8.59096 14.272 11.247L14.352 15.647C14.368 16.095 14.016 16.447 13.568 16.463L11.648 16.495C11.376 16.495 11.168 16.703 11.168 16.975L11.216 20.015C11.216 20.287 11.424 20.495 11.696 20.495L13.616 20.463C14.064 20.463 14.416 20.815 14.432 21.247L14.576 30.367C14.592 31.263 13.872 31.999 12.976 31.999H9.296C3.472 31.999 0 28.527 0 22.687V9.29496C0 3.47096 3.472 -0.0010376 9.296 -0.0010376H22.704C28.528 -0.0010376 32 3.47096 32 9.29496V22.703Z" fill="#33CAFF"/>
</g>
</svg>
