<svg width="32" height="32" viewBox="0 0 32 32" fill="none" xmlns="http://www.w3.org/2000/svg">
<g id="&#240;&#159;&#166;&#134; icon &#34;instagram&#34;">
<g id="Group">
<path id="Vector" d="M20.4651 31.999H11.5349C3.45302 31.999 0 28.5459 0 20.4641V11.5338C0 3.45199 3.45302 -0.0010376 11.5349 -0.0010376H20.4651C28.547 -0.0010376 32 3.45199 32 11.5338V20.4641C32 28.5459 28.547 31.999 20.4651 31.999ZM11.5349 2.23152C4.67349 2.23152 2.23256 4.67245 2.23256 11.5338V20.4641C2.23256 27.3255 4.67349 29.7664 11.5349 29.7664H20.4651C27.3265 29.7664 29.7674 27.3255 29.7674 20.4641V11.5338C29.7674 4.67245 27.3265 2.23152 20.4651 2.23152H11.5349Z" fill="#33CAFF"/>
<path id="Vector_2" d="M16.0004 22.3256C12.5176 22.3256 9.6748 19.4828 9.6748 16C9.6748 12.5172 12.5176 9.67444 16.0004 9.67444C19.4832 9.67444 22.326 12.5172 22.326 16C22.326 19.4828 19.4832 22.3256 16.0004 22.3256ZM16.0004 11.907C13.7381 11.907 11.9074 13.7377 11.9074 16C11.9074 18.2623 13.7381 20.093 16.0004 20.093C18.2627 20.093 20.0934 18.2623 20.0934 16C20.0934 13.7377 18.2627 11.907 16.0004 11.907Z" fill="#33CAFF"/>
<path id="Vector_3" d="M23.4415 9.30215C23.248 9.30215 23.0545 9.2575 22.8759 9.18308C22.6973 9.10866 22.5336 9.00448 22.3848 8.87052C22.2508 8.72169 22.1317 8.55797 22.0573 8.37936C21.9829 8.20076 21.9531 8.00727 21.9531 7.81378C21.9531 7.62029 21.9829 7.4268 22.0573 7.2482C22.1466 7.05471 22.2508 6.90587 22.3848 6.75704C22.4592 6.6975 22.5336 6.62308 22.608 6.57843C22.6973 6.5189 22.7866 6.47424 22.8759 6.44448C22.9652 6.39983 23.0545 6.37006 23.1587 6.35517C23.635 6.25099 24.141 6.41471 24.4982 6.75704C24.6322 6.90587 24.7364 7.05471 24.8108 7.2482C24.8852 7.4268 24.9299 7.62029 24.9299 7.81378C24.9299 8.00727 24.8852 8.20076 24.8108 8.37936C24.7364 8.55797 24.6322 8.72169 24.4982 8.87052C24.3494 9.00448 24.1857 9.10866 24.0071 9.18308C23.8285 9.2575 23.635 9.30215 23.4415 9.30215Z" fill="#33CAFF"/>
</g>
</g>
</svg>
